<svg width="737" height="737" viewBox="0 0 737 737" fill="none" xmlns="http://www.w3.org/2000/svg">
<g filter="url(#filter0_f_76_754)">
<path d="M42.573 505.196C45.0682 502.701 45.0683 498.655 42.573 496.16C40.0777 493.665 36.0321 493.665 33.5368 496.16C31.0415 498.655 31.0415 502.701 33.5368 505.196C36.0321 507.691 40.0777 507.691 42.573 505.196Z" fill="url(#paint0_linear_76_754)"/>
<path d="M109.84 572.463C112.985 569.317 112.985 564.217 109.84 561.071C106.694 557.926 101.594 557.926 98.4482 561.071C95.3026 564.217 95.3026 569.317 98.4483 572.463C101.594 575.608 106.694 575.608 109.84 572.463Z" fill="url(#paint1_linear_76_754)"/>
<path d="M175.929 638.552C179.074 635.406 179.074 630.306 175.929 627.16C172.783 624.015 167.683 624.015 164.537 627.16C161.392 630.306 161.392 635.406 164.537 638.552C167.683 641.697 172.783 641.697 175.929 638.552Z" fill="url(#paint2_linear_76_754)"/>
<path d="M240.84 703.463C243.335 700.968 243.335 696.922 240.84 694.427C238.345 691.932 234.299 691.932 231.804 694.427C229.309 696.922 229.309 700.968 231.804 703.463C234.299 705.958 238.345 705.958 240.84 703.463Z" fill="url(#paint3_linear_76_754)"/>
<path d="M43.7506 374.196C46.8962 371.05 46.8962 365.95 43.7506 362.804C40.6049 359.659 35.5049 359.659 32.3592 362.804C29.2136 365.95 29.2136 371.05 32.3592 374.196C35.5049 377.341 40.6049 377.341 43.7506 374.196Z" fill="url(#paint4_linear_76_754)"/>
<path d="M112.219 442.664C116.678 438.204 116.678 430.974 112.219 426.514C107.759 422.055 100.529 422.055 96.069 426.514C91.6094 430.974 91.6094 438.204 96.069 442.664C100.529 447.124 107.759 447.124 112.219 442.664Z" fill="url(#paint5_linear_76_754)"/>
<path d="M180.687 511.132C186.461 505.359 186.461 495.998 180.687 490.224C174.913 484.45 165.553 484.45 159.779 490.224C154.005 495.998 154.005 505.359 159.779 511.132C165.553 516.906 174.913 516.906 180.687 511.132Z" fill="url(#paint6_linear_76_754)"/>
<path d="M246.776 577.221C252.55 571.448 252.55 562.087 246.776 556.313C241.002 550.539 231.642 550.539 225.868 556.313C220.094 562.087 220.094 571.448 225.868 577.221C231.642 582.995 241.002 582.995 246.776 577.221Z" fill="url(#paint7_linear_76_754)"/>
<path d="M310.486 640.931C314.945 636.471 314.945 629.241 310.486 624.781C306.026 620.322 298.796 620.322 294.336 624.781C289.876 629.241 289.876 636.471 294.336 640.931C298.796 645.391 306.026 645.391 310.486 640.931Z" fill="url(#paint8_linear_76_754)"/>
<path d="M374.196 704.641C377.341 701.495 377.341 696.395 374.196 693.249C371.05 690.104 365.95 690.104 362.804 693.249C359.659 696.395 359.659 701.495 362.804 704.641C365.95 707.786 371.05 707.786 374.196 704.641Z" fill="url(#paint9_linear_76_754)"/>
<path d="M42.573 240.84C45.0683 238.345 45.0682 234.299 42.573 231.804C40.0777 229.309 36.0321 229.309 33.5368 231.804C31.0415 234.299 31.0415 238.345 33.5368 240.84C36.0321 243.335 40.0777 243.335 42.573 240.84Z" fill="url(#paint10_linear_76_754)"/>
<path d="M112.219 310.486C116.678 306.026 116.678 298.796 112.219 294.336C107.759 289.876 100.529 289.876 96.069 294.336C91.6094 298.796 91.6094 306.026 96.069 310.486C100.529 314.945 107.759 314.945 112.219 310.486Z" fill="url(#paint11_linear_76_754)"/>
<path d="M181.865 380.132C188.289 373.708 188.289 363.292 181.865 356.868C175.441 350.444 165.025 350.444 158.601 356.868C152.177 363.292 152.177 373.708 158.601 380.132C165.025 386.556 175.441 386.556 181.865 380.132Z" fill="url(#paint12_linear_76_754)"/>
<path d="M251.51 449.778C259.899 441.389 259.899 427.789 251.51 419.401C243.122 411.012 229.522 411.012 221.134 419.401C212.745 427.789 212.745 441.389 221.134 449.778C229.522 458.166 243.122 458.166 251.51 449.778Z" fill="url(#paint13_linear_76_754)"/>
<path d="M317.599 515.867C325.988 507.478 325.988 493.878 317.599 485.49C309.211 477.101 295.611 477.101 287.223 485.49C278.834 493.878 278.834 507.478 287.223 515.866C295.611 524.255 309.211 524.255 317.599 515.867Z" fill="url(#paint14_linear_76_754)"/>
<path d="M380.132 578.399C386.556 571.975 386.556 561.559 380.132 555.135C373.708 548.711 363.292 548.711 356.868 555.135C350.444 561.559 350.444 571.975 356.868 578.399C363.292 584.823 373.708 584.823 380.132 578.399Z" fill="url(#paint15_linear_76_754)"/>
<path d="M442.664 640.931C447.124 636.471 447.124 629.241 442.664 624.781C438.204 620.322 430.974 620.322 426.514 624.781C422.055 629.241 422.055 636.471 426.514 640.931C430.974 645.391 438.204 645.391 442.664 640.931Z" fill="url(#paint16_linear_76_754)"/>
<path d="M505.196 703.463C507.691 700.968 507.691 696.922 505.196 694.427C502.701 691.932 498.655 691.932 496.16 694.427C493.665 696.922 493.665 700.968 496.16 703.463C498.655 705.958 502.701 705.958 505.196 703.463Z" fill="url(#paint17_linear_76_754)"/>
<path d="M109.84 175.929C112.985 172.783 112.985 167.683 109.84 164.537C106.694 161.392 101.594 161.392 98.4483 164.537C95.3026 167.683 95.3026 172.783 98.4482 175.929C101.594 179.074 106.694 179.074 109.84 175.929Z" fill="url(#paint18_linear_76_754)"/>
<path d="M180.687 246.776C186.461 241.002 186.461 231.642 180.687 225.868C174.913 220.094 165.553 220.094 159.779 225.868C154.005 231.642 154.005 241.002 159.779 246.776C165.553 252.55 174.913 252.55 180.687 246.776Z" fill="url(#paint19_linear_76_754)"/>
<path d="M251.51 317.599C259.899 309.211 259.899 295.611 251.51 287.223C243.122 278.834 229.522 278.834 221.134 287.223C212.745 295.611 212.745 309.211 221.134 317.599C229.522 325.988 243.122 325.988 251.51 317.599Z" fill="url(#paint20_linear_76_754)"/>
<path d="M322.358 388.447C333.374 377.431 333.374 359.569 322.358 348.553C311.342 337.537 293.48 337.537 282.464 348.553C271.448 359.569 271.448 377.431 282.464 388.447C293.48 399.463 311.342 399.463 322.358 388.447Z" fill="url(#paint21_linear_76_754)"/>
<path d="M388.447 454.536C399.463 443.52 399.463 425.658 388.447 414.642C377.431 403.626 359.57 403.626 348.553 414.642C337.537 425.658 337.537 443.52 348.553 454.536C359.57 465.552 377.431 465.552 388.447 454.536Z" fill="url(#paint22_linear_76_754)"/>
<path d="M449.778 515.866C458.166 507.478 458.166 493.878 449.778 485.49C441.389 477.101 427.789 477.101 419.401 485.49C411.012 493.878 411.012 507.478 419.401 515.866C427.789 524.255 441.389 524.255 449.778 515.866Z" fill="url(#paint23_linear_76_754)"/>
<path d="M511.132 577.221C516.906 571.448 516.906 562.087 511.132 556.313C505.359 550.539 495.998 550.539 490.224 556.313C484.45 562.087 484.45 571.447 490.224 577.221C495.998 582.995 505.359 582.995 511.132 577.221Z" fill="url(#paint24_linear_76_754)"/>
<path d="M572.463 638.552C575.608 635.406 575.608 630.306 572.463 627.16C569.317 624.015 564.217 624.015 561.071 627.16C557.926 630.306 557.926 635.406 561.071 638.552C564.217 641.697 569.317 641.697 572.463 638.552Z" fill="url(#paint25_linear_76_754)"/>
<path d="M175.929 109.84C179.074 106.694 179.074 101.594 175.929 98.4482C172.783 95.3026 167.683 95.3026 164.537 98.4482C161.392 101.594 161.392 106.694 164.537 109.84C167.683 112.985 172.783 112.985 175.929 109.84Z" fill="url(#paint26_linear_76_754)"/>
<path d="M246.776 180.687C252.55 174.913 252.55 165.552 246.776 159.779C241.002 154.005 231.642 154.005 225.868 159.779C220.094 165.552 220.094 174.913 225.868 180.687C231.642 186.461 241.002 186.461 246.776 180.687Z" fill="url(#paint27_linear_76_754)"/>
<path d="M317.599 251.51C325.988 243.122 325.988 229.522 317.599 221.133C309.211 212.745 295.611 212.745 287.223 221.133C278.834 229.522 278.834 243.122 287.223 251.51C295.611 259.899 309.211 259.899 317.599 251.51Z" fill="url(#paint28_linear_76_754)"/>
<path d="M388.447 322.358C399.463 311.342 399.463 293.48 388.447 282.464C377.431 271.448 359.57 271.448 348.553 282.464C337.537 293.48 337.537 311.342 348.553 322.358C359.57 333.374 377.431 333.374 388.447 322.358Z" fill="url(#paint29_linear_76_754)"/>
<path d="M454.536 388.447C465.552 377.431 465.552 359.569 454.536 348.553C443.52 337.537 425.659 337.537 414.642 348.553C403.626 359.569 403.626 377.431 414.642 388.447C425.659 399.463 443.52 399.463 454.536 388.447Z" fill="url(#paint30_linear_76_754)"/>
<path d="M515.867 449.777C524.255 441.389 524.255 427.789 515.867 419.401C507.478 411.012 493.878 411.012 485.49 419.401C477.101 427.789 477.101 441.389 485.49 449.777C493.878 458.166 507.478 458.166 515.867 449.777Z" fill="url(#paint31_linear_76_754)"/>
<path d="M577.221 511.132C582.995 505.359 582.995 495.998 577.221 490.224C571.448 484.45 562.087 484.45 556.313 490.224C550.539 495.998 550.539 505.358 556.313 511.132C562.087 516.906 571.448 516.906 577.221 511.132Z" fill="url(#paint32_linear_76_754)"/>
<path d="M638.552 572.463C641.697 569.317 641.697 564.217 638.552 561.071C635.406 557.926 630.306 557.926 627.16 561.071C624.015 564.217 624.015 569.317 627.16 572.463C630.306 575.608 635.406 575.608 638.552 572.463Z" fill="url(#paint33_linear_76_754)"/>
<path d="M240.84 42.573C243.335 40.0777 243.335 36.0321 240.84 33.5368C238.345 31.0415 234.299 31.0415 231.804 33.5368C229.309 36.0321 229.309 40.0777 231.804 42.573C234.299 45.0683 238.345 45.0682 240.84 42.573Z" fill="url(#paint34_linear_76_754)"/>
<path d="M310.486 112.219C314.945 107.759 314.945 100.529 310.486 96.069C306.026 91.6094 298.796 91.6094 294.336 96.069C289.876 100.529 289.876 107.759 294.336 112.219C298.796 116.678 306.026 116.678 310.486 112.219Z" fill="url(#paint35_linear_76_754)"/>
<path d="M380.132 181.865C386.556 175.441 386.556 165.025 380.132 158.601C373.708 152.177 363.292 152.177 356.868 158.601C350.444 165.025 350.444 175.441 356.868 181.865C363.292 188.289 373.708 188.289 380.132 181.865Z" fill="url(#paint36_linear_76_754)"/>
<path d="M449.778 251.51C458.166 243.122 458.166 229.522 449.778 221.133C441.389 212.745 427.789 212.745 419.401 221.134C411.012 229.522 411.012 243.122 419.401 251.51C427.789 259.899 441.389 259.899 449.778 251.51Z" fill="url(#paint37_linear_76_754)"/>
<path d="M515.867 317.599C524.255 309.211 524.255 295.611 515.867 287.223C507.478 278.834 493.878 278.834 485.49 287.223C477.101 295.611 477.101 309.211 485.49 317.599C493.878 325.988 507.478 325.988 515.867 317.599Z" fill="url(#paint38_linear_76_754)"/>
<path d="M578.399 380.132C584.823 373.708 584.823 363.292 578.399 356.868C571.975 350.444 561.559 350.444 555.135 356.868C548.711 363.292 548.711 373.708 555.135 380.132C561.559 386.556 571.975 386.556 578.399 380.132Z" fill="url(#paint39_linear_76_754)"/>
<path d="M640.931 442.664C645.391 438.204 645.391 430.974 640.931 426.514C636.471 422.055 629.241 422.055 624.781 426.514C620.322 430.974 620.322 438.204 624.781 442.664C629.241 447.124 636.471 447.124 640.931 442.664Z" fill="url(#paint40_linear_76_754)"/>
<path d="M703.463 505.196C705.958 502.701 705.958 498.655 703.463 496.16C700.968 493.665 696.922 493.665 694.427 496.16C691.932 498.655 691.932 502.701 694.427 505.196C696.922 507.691 700.968 507.691 703.463 505.196Z" fill="url(#paint41_linear_76_754)"/>
<path d="M374.196 43.7506C377.341 40.6049 377.341 35.5049 374.196 32.3592C371.05 29.2136 365.95 29.2136 362.804 32.3592C359.659 35.5049 359.659 40.6049 362.804 43.7506C365.95 46.8962 371.05 46.8962 374.196 43.7506Z" fill="url(#paint42_linear_76_754)"/>
<path d="M442.664 112.219C447.124 107.759 447.124 100.529 442.664 96.069C438.204 91.6094 430.974 91.6094 426.514 96.069C422.055 100.529 422.055 107.759 426.514 112.219C430.974 116.678 438.204 116.678 442.664 112.219Z" fill="url(#paint43_linear_76_754)"/>
<path d="M511.132 180.687C516.906 174.913 516.906 165.552 511.132 159.779C505.359 154.005 495.998 154.005 490.224 159.779C484.45 165.553 484.45 174.913 490.224 180.687C495.998 186.461 505.359 186.461 511.132 180.687Z" fill="url(#paint44_linear_76_754)"/>
<path d="M577.221 246.776C582.995 241.002 582.995 231.642 577.221 225.868C571.448 220.094 562.087 220.094 556.313 225.868C550.539 231.642 550.539 241.002 556.313 246.776C562.087 252.55 571.448 252.55 577.221 246.776Z" fill="url(#paint45_linear_76_754)"/>
<path d="M640.931 310.486C645.391 306.026 645.391 298.796 640.931 294.336C636.471 289.876 629.241 289.876 624.781 294.336C620.322 298.796 620.322 306.026 624.781 310.486C629.241 314.945 636.471 314.945 640.931 310.486Z" fill="url(#paint46_linear_76_754)"/>
<path d="M704.641 374.196C707.786 371.05 707.786 365.95 704.641 362.804C701.495 359.659 696.395 359.659 693.249 362.804C690.104 365.95 690.104 371.05 693.249 374.196C696.395 377.341 701.495 377.341 704.641 374.196Z" fill="url(#paint47_linear_76_754)"/>
<path d="M505.196 42.573C507.691 40.0777 507.691 36.0321 505.196 33.5368C502.701 31.0415 498.655 31.0415 496.16 33.5368C493.665 36.0321 493.665 40.0777 496.16 42.573C498.655 45.0683 502.701 45.0682 505.196 42.573Z" fill="url(#paint48_linear_76_754)"/>
<path d="M572.463 109.84C575.608 106.694 575.608 101.594 572.463 98.4483C569.317 95.3026 564.217 95.3026 561.071 98.4482C557.926 101.594 557.926 106.694 561.071 109.84C564.217 112.985 569.317 112.985 572.463 109.84Z" fill="url(#paint49_linear_76_754)"/>
<path d="M638.552 175.929C641.697 172.783 641.697 167.683 638.552 164.537C635.406 161.392 630.306 161.392 627.16 164.537C624.015 167.683 624.015 172.783 627.16 175.929C630.306 179.074 635.406 179.074 638.552 175.929Z" fill="url(#paint50_linear_76_754)"/>
<path d="M703.463 240.84C705.958 238.345 705.958 234.299 703.463 231.804C700.968 229.309 696.922 229.309 694.427 231.804C691.932 234.299 691.932 238.345 694.427 240.84C696.922 243.335 700.968 243.335 703.463 240.84Z" fill="url(#paint51_linear_76_754)"/>
</g>
<defs>
<filter id="filter0_f_76_754" x="0" y="0" width="737" height="737" filterUnits="userSpaceOnUse" color-interpolation-filters="sRGB">
<feFlood flood-opacity="0" result="BackgroundImageFix"/>
<feBlend mode="normal" in="SourceGraphic" in2="BackgroundImageFix" result="shape"/>
<feGaussianBlur stdDeviation="15" result="effect1_foregroundBlur_76_754"/>
</filter>
<linearGradient id="paint0_linear_76_754" x1="368.5" y1="165" x2="368.5" y2="566" gradientUnits="userSpaceOnUse">
<stop stop-color="#D6FE63"/>
<stop offset="1" stop-color="#7693FE"/>
</linearGradient>
<linearGradient id="paint1_linear_76_754" x1="368.5" y1="165" x2="368.5" y2="566" gradientUnits="userSpaceOnUse">
<stop stop-color="#D6FE63"/>
<stop offset="1" stop-color="#7693FE"/>
</linearGradient>
<linearGradient id="paint2_linear_76_754" x1="368.5" y1="165" x2="368.5" y2="566" gradientUnits="userSpaceOnUse">
<stop stop-color="#D6FE63"/>
<stop offset="1" stop-color="#7693FE"/>
</linearGradient>
<linearGradient id="paint3_linear_76_754" x1="368.5" y1="165" x2="368.5" y2="566" gradientUnits="userSpaceOnUse">
<stop stop-color="#D6FE63"/>
<stop offset="1" stop-color="#7693FE"/>
</linearGradient>
<linearGradient id="paint4_linear_76_754" x1="368.5" y1="165" x2="368.5" y2="566" gradientUnits="userSpaceOnUse">
<stop stop-color="#D6FE63"/>
<stop offset="1" stop-color="#7693FE"/>
</linearGradient>
<linearGradient id="paint5_linear_76_754" x1="368.5" y1="165" x2="368.5" y2="566" gradientUnits="userSpaceOnUse">
<stop stop-color="#D6FE63"/>
<stop offset="1" stop-color="#7693FE"/>
</linearGradient>
<linearGradient id="paint6_linear_76_754" x1="368.5" y1="165" x2="368.5" y2="566" gradientUnits="userSpaceOnUse">
<stop stop-color="#D6FE63"/>
<stop offset="1" stop-color="#7693FE"/>
</linearGradient>
<linearGradient id="paint7_linear_76_754" x1="368.5" y1="165" x2="368.5" y2="566" gradientUnits="userSpaceOnUse">
<stop stop-color="#D6FE63"/>
<stop offset="1" stop-color="#7693FE"/>
</linearGradient>
<linearGradient id="paint8_linear_76_754" x1="368.5" y1="165" x2="368.5" y2="566" gradientUnits="userSpaceOnUse">
<stop stop-color="#D6FE63"/>
<stop offset="1" stop-color="#7693FE"/>
</linearGradient>
<linearGradient id="paint9_linear_76_754" x1="368.5" y1="165" x2="368.5" y2="566" gradientUnits="userSpaceOnUse">
<stop stop-color="#D6FE63"/>
<stop offset="1" stop-color="#7693FE"/>
</linearGradient>
<linearGradient id="paint10_linear_76_754" x1="368.5" y1="165" x2="368.5" y2="566" gradientUnits="userSpaceOnUse">
<stop stop-color="#D6FE63"/>
<stop offset="1" stop-color="#7693FE"/>
</linearGradient>
<linearGradient id="paint11_linear_76_754" x1="368.5" y1="165" x2="368.5" y2="566" gradientUnits="userSpaceOnUse">
<stop stop-color="#D6FE63"/>
<stop offset="1" stop-color="#7693FE"/>
</linearGradient>
<linearGradient id="paint12_linear_76_754" x1="368.5" y1="165" x2="368.5" y2="566" gradientUnits="userSpaceOnUse">
<stop stop-color="#D6FE63"/>
<stop offset="1" stop-color="#7693FE"/>
</linearGradient>
<linearGradient id="paint13_linear_76_754" x1="368.5" y1="165" x2="368.5" y2="566" gradientUnits="userSpaceOnUse">
<stop stop-color="#D6FE63"/>
<stop offset="1" stop-color="#7693FE"/>
</linearGradient>
<linearGradient id="paint14_linear_76_754" x1="368.5" y1="165" x2="368.5" y2="566" gradientUnits="userSpaceOnUse">
<stop stop-color="#D6FE63"/>
<stop offset="1" stop-color="#7693FE"/>
</linearGradient>
<linearGradient id="paint15_linear_76_754" x1="368.5" y1="165" x2="368.5" y2="566" gradientUnits="userSpaceOnUse">
<stop stop-color="#D6FE63"/>
<stop offset="1" stop-color="#7693FE"/>
</linearGradient>
<linearGradient id="paint16_linear_76_754" x1="368.5" y1="165" x2="368.5" y2="566" gradientUnits="userSpaceOnUse">
<stop stop-color="#D6FE63"/>
<stop offset="1" stop-color="#7693FE"/>
</linearGradient>
<linearGradient id="paint17_linear_76_754" x1="368.5" y1="165" x2="368.5" y2="566" gradientUnits="userSpaceOnUse">
<stop stop-color="#D6FE63"/>
<stop offset="1" stop-color="#7693FE"/>
</linearGradient>
<linearGradient id="paint18_linear_76_754" x1="368.5" y1="165" x2="368.5" y2="566" gradientUnits="userSpaceOnUse">
<stop stop-color="#D6FE63"/>
<stop offset="1" stop-color="#7693FE"/>
</linearGradient>
<linearGradient id="paint19_linear_76_754" x1="368.5" y1="165" x2="368.5" y2="566" gradientUnits="userSpaceOnUse">
<stop stop-color="#D6FE63"/>
<stop offset="1" stop-color="#7693FE"/>
</linearGradient>
<linearGradient id="paint20_linear_76_754" x1="368.5" y1="165" x2="368.5" y2="566" gradientUnits="userSpaceOnUse">
<stop stop-color="#D6FE63"/>
<stop offset="1" stop-color="#7693FE"/>
</linearGradient>
<linearGradient id="paint21_linear_76_754" x1="368.5" y1="165" x2="368.5" y2="566" gradientUnits="userSpaceOnUse">
<stop stop-color="#D6FE63"/>
<stop offset="1" stop-color="#7693FE"/>
</linearGradient>
<linearGradient id="paint22_linear_76_754" x1="368.5" y1="165" x2="368.5" y2="566" gradientUnits="userSpaceOnUse">
<stop stop-color="#D6FE63"/>
<stop offset="1" stop-color="#7693FE"/>
</linearGradient>
<linearGradient id="paint23_linear_76_754" x1="368.5" y1="165" x2="368.5" y2="566" gradientUnits="userSpaceOnUse">
<stop stop-color="#D6FE63"/>
<stop offset="1" stop-color="#7693FE"/>
</linearGradient>
<linearGradient id="paint24_linear_76_754" x1="368.5" y1="165" x2="368.5" y2="566" gradientUnits="userSpaceOnUse">
<stop stop-color="#D6FE63"/>
<stop offset="1" stop-color="#7693FE"/>
</linearGradient>
<linearGradient id="paint25_linear_76_754" x1="368.5" y1="165" x2="368.5" y2="566" gradientUnits="userSpaceOnUse">
<stop stop-color="#D6FE63"/>
<stop offset="1" stop-color="#7693FE"/>
</linearGradient>
<linearGradient id="paint26_linear_76_754" x1="368.5" y1="165" x2="368.5" y2="566" gradientUnits="userSpaceOnUse">
<stop stop-color="#D6FE63"/>
<stop offset="1" stop-color="#7693FE"/>
</linearGradient>
<linearGradient id="paint27_linear_76_754" x1="368.5" y1="165" x2="368.5" y2="566" gradientUnits="userSpaceOnUse">
<stop stop-color="#D6FE63"/>
<stop offset="1" stop-color="#7693FE"/>
</linearGradient>
<linearGradient id="paint28_linear_76_754" x1="368.5" y1="165" x2="368.5" y2="566" gradientUnits="userSpaceOnUse">
<stop stop-color="#D6FE63"/>
<stop offset="1" stop-color="#7693FE"/>
</linearGradient>
<linearGradient id="paint29_linear_76_754" x1="368.5" y1="165" x2="368.5" y2="566" gradientUnits="userSpaceOnUse">
<stop stop-color="#D6FE63"/>
<stop offset="1" stop-color="#7693FE"/>
</linearGradient>
<linearGradient id="paint30_linear_76_754" x1="368.5" y1="165" x2="368.5" y2="566" gradientUnits="userSpaceOnUse">
<stop stop-color="#D6FE63"/>
<stop offset="1" stop-color="#7693FE"/>
</linearGradient>
<linearGradient id="paint31_linear_76_754" x1="368.5" y1="165" x2="368.5" y2="566" gradientUnits="userSpaceOnUse">
<stop stop-color="#D6FE63"/>
<stop offset="1" stop-color="#7693FE"/>
</linearGradient>
<linearGradient id="paint32_linear_76_754" x1="368.5" y1="165" x2="368.5" y2="566" gradientUnits="userSpaceOnUse">
<stop stop-color="#D6FE63"/>
<stop offset="1" stop-color="#7693FE"/>
</linearGradient>
<linearGradient id="paint33_linear_76_754" x1="368.5" y1="165" x2="368.5" y2="566" gradientUnits="userSpaceOnUse">
<stop stop-color="#D6FE63"/>
<stop offset="1" stop-color="#7693FE"/>
</linearGradient>
<linearGradient id="paint34_linear_76_754" x1="368.5" y1="165" x2="368.5" y2="566" gradientUnits="userSpaceOnUse">
<stop stop-color="#D6FE63"/>
<stop offset="1" stop-color="#7693FE"/>
</linearGradient>
<linearGradient id="paint35_linear_76_754" x1="368.5" y1="165" x2="368.5" y2="566" gradientUnits="userSpaceOnUse">
<stop stop-color="#D6FE63"/>
<stop offset="1" stop-color="#7693FE"/>
</linearGradient>
<linearGradient id="paint36_linear_76_754" x1="368.5" y1="165" x2="368.5" y2="566" gradientUnits="userSpaceOnUse">
<stop stop-color="#D6FE63"/>
<stop offset="1" stop-color="#7693FE"/>
</linearGradient>
<linearGradient id="paint37_linear_76_754" x1="368.5" y1="165" x2="368.5" y2="566" gradientUnits="userSpaceOnUse">
<stop stop-color="#D6FE63"/>
<stop offset="1" stop-color="#7693FE"/>
</linearGradient>
<linearGradient id="paint38_linear_76_754" x1="368.5" y1="165" x2="368.5" y2="566" gradientUnits="userSpaceOnUse">
<stop stop-color="#D6FE63"/>
<stop offset="1" stop-color="#7693FE"/>
</linearGradient>
<linearGradient id="paint39_linear_76_754" x1="368.5" y1="165" x2="368.5" y2="566" gradientUnits="userSpaceOnUse">
<stop stop-color="#D6FE63"/>
<stop offset="1" stop-color="#7693FE"/>
</linearGradient>
<linearGradient id="paint40_linear_76_754" x1="368.5" y1="165" x2="368.5" y2="566" gradientUnits="userSpaceOnUse">
<stop stop-color="#D6FE63"/>
<stop offset="1" stop-color="#7693FE"/>
</linearGradient>
<linearGradient id="paint41_linear_76_754" x1="368.5" y1="165" x2="368.5" y2="566" gradientUnits="userSpaceOnUse">
<stop stop-color="#D6FE63"/>
<stop offset="1" stop-color="#7693FE"/>
</linearGradient>
<linearGradient id="paint42_linear_76_754" x1="368.5" y1="165" x2="368.5" y2="566" gradientUnits="userSpaceOnUse">
<stop stop-color="#D6FE63"/>
<stop offset="1" stop-color="#7693FE"/>
</linearGradient>
<linearGradient id="paint43_linear_76_754" x1="368.5" y1="165" x2="368.5" y2="566" gradientUnits="userSpaceOnUse">
<stop stop-color="#D6FE63"/>
<stop offset="1" stop-color="#7693FE"/>
</linearGradient>
<linearGradient id="paint44_linear_76_754" x1="368.5" y1="165" x2="368.5" y2="566" gradientUnits="userSpaceOnUse">
<stop stop-color="#D6FE63"/>
<stop offset="1" stop-color="#7693FE"/>
</linearGradient>
<linearGradient id="paint45_linear_76_754" x1="368.5" y1="165" x2="368.5" y2="566" gradientUnits="userSpaceOnUse">
<stop stop-color="#D6FE63"/>
<stop offset="1" stop-color="#7693FE"/>
</linearGradient>
<linearGradient id="paint46_linear_76_754" x1="368.5" y1="165" x2="368.5" y2="566" gradientUnits="userSpaceOnUse">
<stop stop-color="#D6FE63"/>
<stop offset="1" stop-color="#7693FE"/>
</linearGradient>
<linearGradient id="paint47_linear_76_754" x1="368.5" y1="165" x2="368.5" y2="566" gradientUnits="userSpaceOnUse">
<stop stop-color="#D6FE63"/>
<stop offset="1" stop-color="#7693FE"/>
</linearGradient>
<linearGradient id="paint48_linear_76_754" x1="368.5" y1="165" x2="368.5" y2="566" gradientUnits="userSpaceOnUse">
<stop stop-color="#D6FE63"/>
<stop offset="1" stop-color="#7693FE"/>
</linearGradient>
<linearGradient id="paint49_linear_76_754" x1="368.5" y1="165" x2="368.5" y2="566" gradientUnits="userSpaceOnUse">
<stop stop-color="#D6FE63"/>
<stop offset="1" stop-color="#7693FE"/>
</linearGradient>
<linearGradient id="paint50_linear_76_754" x1="368.5" y1="165" x2="368.5" y2="566" gradientUnits="userSpaceOnUse">
<stop stop-color="#D6FE63"/>
<stop offset="1" stop-color="#7693FE"/>
</linearGradient>
<linearGradient id="paint51_linear_76_754" x1="368.5" y1="165" x2="368.5" y2="566" gradientUnits="userSpaceOnUse">
<stop stop-color="#D6FE63"/>
<stop offset="1" stop-color="#7693FE"/>
</linearGradient>
</defs>
</svg>
